<?xml version="1.0" encoding="UTF-8" standalone="no"?>
<!DOCTYPE svg PUBLIC "-//W3C//DTD SVG 1.1//EN"
 "http://www.w3.org/Graphics/SVG/1.1/DTD/svg11.dtd">
<!-- Generated by graphviz version 2.28.0 (20110509.1545)
 -->
<!-- Title: G Pages: 1 -->
<svg width="408pt" height="274pt"
 viewBox="0.00 0.00 408.00 274.00" xmlns="http://www.w3.org/2000/svg" xmlns:xlink="http://www.w3.org/1999/xlink">
<g id="graph1" class="graph" transform="scale(1 1) rotate(0) translate(4 270)">
<title>G</title>
<polygon fill="white" stroke="white" points="-4,5 -4,-270 405,-270 405,5 -4,5"/>
<g id="graph2" class="cluster"><title>cluster_default</title>
<polyline fill="none" stroke="none" points="22,-44 380,-44 "/>
<path fill="none" stroke="none" d="M380,-44C386,-44 392,-50 392,-56"/>
<polyline fill="none" stroke="none" points="392,-56 392,-246 "/>
<path fill="none" stroke="none" d="M392,-246C392,-252 386,-258 380,-258"/>
<polyline fill="none" stroke="none" points="380,-258 22,-258 "/>
<path fill="none" stroke="none" d="M22,-258C16,-258 10,-252 10,-246"/>
<polyline fill="none" stroke="none" points="10,-246 10,-56 "/>
<path fill="none" stroke="none" d="M10,-56C10,-50 16,-44 22,-44"/>
</g>
<!-- \\Actor -->
<g id="node2" class="node"><title>\\Actor</title>
<a xlink:href="actor.html" xlink:title="Actor" target="_parent">
<polygon fill="none" stroke="black" points="72,-196 18,-196 18,-160 72,-160 72,-196"/>
<text text-anchor="middle" x="45" y="-173.6" font-family="Courier,monospace" font-size="11.00">Actor</text>
</a>
</g>
<!-- \\Notifications_Api_Factory_Queue -->
<g id="node3" class="node"><title>\\Notifications_Api_Factory_Queue</title>
<a xlink:href="notifications_api_factory_queue.html" xlink:title="Notifications_Api_Factory_Queue" target="_parent">
<polygon fill="none" stroke="black" points="383.134,-88 162.866,-88 162.866,-52 383.134,-52 383.134,-88"/>
<text text-anchor="middle" x="273" y="-65.6" font-family="Courier,monospace" font-size="11.00">Notifications_Api_Factory_Queue</text>
</a>
</g>
<!-- \\Iterator -->
<g id="node10" class="node"><title>\\Iterator</title>
<ellipse fill="none" stroke="black" cx="45" cy="-18" rx="44.6347" ry="18"/>
<text text-anchor="middle" x="45" y="-12.4" font-family="Times,serif" font-size="14.00" fill="gray">\\Iterator</text>
</g>
<!-- \\Notifications_Api_Factory_Queue&#45;&gt;\\Iterator -->
<g id="edge7" class="edge"><title>\\Notifications_Api_Factory_Queue&#45;&gt;\\Iterator</title>
<path fill="none" stroke="black" stroke-dasharray="1,5" d="M193.59,-51.9589C160.518,-44.3493 123.071,-35.7331 94.172,-29.0838"/>
<polygon fill="none" stroke="black" points="94.858,-25.6503 84.3278,-26.8188 93.2884,-32.472 94.858,-25.6503"/>
</g>
<!-- \\Notifications_Api_Notification -->
<g id="node4" class="node"><title>\\Notifications_Api_Notification</title>
<a xlink:href="notifications_api_notification.html" xlink:title="Notifications_Api_Notification" target="_parent">
<polygon fill="none" stroke="black" points="380.032,-196 165.968,-196 165.968,-160 380.032,-160 380.032,-196"/>
<text text-anchor="middle" x="273" y="-173.6" font-family="Courier,monospace" font-size="11.00">Notifications_Api_Notification</text>
</a>
</g>
<!-- \\Recipient -->
<g id="node5" class="node"><title>\\Recipient</title>
<a xlink:href="recipient.html" xlink:title="Recipient" target="_parent">
<polygon fill="none" stroke="black" points="310.911,-250 235.089,-250 235.089,-214 310.911,-214 310.911,-250"/>
<text text-anchor="middle" x="273" y="-227.6" font-family="Courier,monospace" font-size="11.00">Recipient</text>
</a>
</g>
<!-- \\Recipient&#45;&gt;\\Actor -->
<g id="edge3" class="edge"><title>\\Recipient&#45;&gt;\\Actor</title>
<path fill="none" stroke="black" d="M235.186,-223.204C192.895,-213.099 123.954,-196.626 82.0054,-186.603"/>
<polygon fill="none" stroke="black" points="82.7494,-183.182 72.2098,-184.263 81.1226,-189.991 82.7494,-183.182"/>
</g>
<!-- \\Sender -->
<g id="node6" class="node"><title>\\Sender</title>
<a xlink:href="sender.html" xlink:title="Sender" target="_parent">
<polygon fill="none" stroke="black" points="300.608,-142 245.392,-142 245.392,-106 300.608,-106 300.608,-142"/>
<text text-anchor="middle" x="273" y="-119.6" font-family="Courier,monospace" font-size="11.00">Sender</text>
</a>
</g>
<!-- \\Sender&#45;&gt;\\Actor -->
<g id="edge5" class="edge"><title>\\Sender&#45;&gt;\\Actor</title>
<path fill="none" stroke="black" d="M245.187,-130.407C204.533,-140.121 127.233,-158.59 81.8097,-169.444"/>
<polygon fill="none" stroke="black" points="80.993,-166.04 72.0802,-171.768 82.6199,-172.849 80.993,-166.04"/>
</g>
</g>
</svg>
