<?xml version="1.0" encoding="UTF-8" standalone="no"?>
<!DOCTYPE svg PUBLIC "-//W3C//DTD SVG 1.1//EN"
 "http://www.w3.org/Graphics/SVG/1.1/DTD/svg11.dtd">
<!-- Generated by graphviz version 2.28.0 (20110509.1545)
 -->
<!-- Title: G Pages: 1 -->
<svg width="502pt" height="382pt"
 viewBox="0.00 0.00 502.00 382.00" xmlns="http://www.w3.org/2000/svg" xmlns:xlink="http://www.w3.org/1999/xlink">
<g id="graph1" class="graph" transform="scale(1 1) rotate(0) translate(4 378)">
<title>G</title>
<polygon fill="white" stroke="white" points="-4,5 -4,-378 499,-378 499,5 -4,5"/>
<g id="graph2" class="cluster"><title>cluster_default</title>
<polyline fill="none" stroke="none" points="20,-98 474,-98 "/>
<path fill="none" stroke="none" d="M474,-98C480,-98 486,-104 486,-110"/>
<polyline fill="none" stroke="none" points="486,-110 486,-354 "/>
<path fill="none" stroke="none" d="M486,-354C486,-360 480,-366 474,-366"/>
<polyline fill="none" stroke="none" points="474,-366 20,-366 "/>
<path fill="none" stroke="none" d="M20,-366C14,-366 8,-360 8,-354"/>
<polyline fill="none" stroke="none" points="8,-354 8,-110 "/>
<path fill="none" stroke="none" d="M8,-110C8,-104 14,-98 20,-98"/>
</g>
<!-- \\Notifications_Api_Actor -->
<g id="node2" class="node"><title>\\Notifications_Api_Actor</title>
<a xlink:href="actor.html" xlink:title="Notifications_Api_Actor" target="_parent">
<polygon fill="none" stroke="black" points="183.825,-331 16.1752,-331 16.1752,-295 183.825,-295 183.825,-331"/>
<text text-anchor="middle" x="100" y="-308.6" font-family="Courier,monospace" font-size="11.00">Notifications_Api_Actor</text>
</a>
</g>
<!-- \\Notification_Api_Exception -->
<g id="node3" class="node"><title>\\Notification_Api_Exception</title>
<a xlink:href="exceptions.html" xlink:title="Notification_Api_Exception" target="_parent">
<polygon fill="none" stroke="black" points="460.628,-196 273.372,-196 273.372,-160 460.628,-160 460.628,-196"/>
<text text-anchor="middle" x="367" y="-173.6" font-family="Courier,monospace" font-size="11.00">Notification_Api_Exception</text>
</a>
</g>
<!-- \\Exception -->
<g id="node9" class="node"><title>\\Exception</title>
<ellipse fill="none" stroke="black" cx="100" cy="-72" rx="52.7417" ry="18"/>
<text text-anchor="middle" x="100" y="-66.4" font-family="Times,serif" font-size="14.00" fill="gray">\Exception</text>
</g>
<!-- \\Notification_Api_Exception&#45;&gt;\\Exception -->
<g id="edge3" class="edge"><title>\\Notification_Api_Exception&#45;&gt;\\Exception</title>
<path fill="none" stroke="black" d="M277.729,-159.956C270.231,-157.342 262.888,-154.371 256,-151 219.341,-133.058 220.492,-112.279 184,-94 175.394,-89.689 165.848,-86.1531 156.386,-83.2756"/>
<polygon fill="none" stroke="black" points="157.172,-79.8608 146.597,-80.5103 155.269,-86.5971 157.172,-79.8608"/>
</g>
<!-- \\Notifications_Api_Factory_Queue -->
<g id="node4" class="node"><title>\\Notifications_Api_Factory_Queue</title>
<a xlink:href="notifications_api_factory_queue.html" xlink:title="Notifications_Api_Factory_Queue" target="_parent">
<polygon fill="none" stroke="black" points="477.134,-142 256.866,-142 256.866,-106 477.134,-106 477.134,-142"/>
<text text-anchor="middle" x="367" y="-119.6" font-family="Courier,monospace" font-size="11.00">Notifications_Api_Factory_Queue</text>
</a>
</g>
<!-- \\Iterator -->
<g id="node13" class="node"><title>\\Iterator</title>
<ellipse fill="none" stroke="black" cx="100" cy="-18" rx="44.6347" ry="18"/>
<text text-anchor="middle" x="100" y="-12.4" font-family="Times,serif" font-size="14.00" fill="gray">\\Iterator</text>
</g>
<!-- \\Notifications_Api_Factory_Queue&#45;&gt;\\Iterator -->
<g id="edge9" class="edge"><title>\\Notifications_Api_Factory_Queue&#45;&gt;\\Iterator</title>
<path fill="none" stroke="black" stroke-dasharray="1,5" d="M327.387,-105.966C290.843,-89.2034 234.252,-64.0307 184,-45 171.812,-40.3843 158.445,-35.8225 146.067,-31.7993"/>
<polygon fill="none" stroke="black" points="146.984,-28.4181 136.393,-28.6975 144.847,-35.0838 146.984,-28.4181"/>
</g>
<!-- \\Notifications_Api_Notification -->
<g id="node5" class="node"><title>\\Notifications_Api_Notification</title>
<a xlink:href="notifications_api_notification.html" xlink:title="Notifications_Api_Notification" target="_parent">
<polygon fill="none" stroke="black" points="474.032,-250 259.968,-250 259.968,-214 474.032,-214 474.032,-250"/>
<text text-anchor="middle" x="367" y="-227.6" font-family="Courier,monospace" font-size="11.00">Notifications_Api_Notification</text>
</a>
</g>
<!-- \\Notifications_Api_Recipient -->
<g id="node6" class="node"><title>\\Notifications_Api_Recipient</title>
<a xlink:href="recipient.html" xlink:title="Notifications_Api_Recipient" target="_parent">
<polygon fill="none" stroke="black" points="464.229,-304 269.771,-304 269.771,-268 464.229,-268 464.229,-304"/>
<text text-anchor="middle" x="367" y="-281.6" font-family="Courier,monospace" font-size="11.00">Notifications_Api_Recipient</text>
</a>
</g>
<!-- \\Notifications_Api_Recipient&#45;&gt;\\Notifications_Api_Actor -->
<g id="edge5" class="edge"><title>\\Notifications_Api_Recipient&#45;&gt;\\Notifications_Api_Actor</title>
<path fill="none" stroke="black" d="M269.579,-295.824C244.996,-298.329 218.62,-301.016 194.202,-303.504"/>
<polygon fill="none" stroke="black" points="193.824,-300.024 184.23,-304.52 194.533,-306.988 193.824,-300.024"/>
</g>
<!-- \\Notifications_Api_Sender -->
<g id="node7" class="node"><title>\\Notifications_Api_Sender</title>
<a xlink:href="sender.html" xlink:title="Notifications_Api_Sender" target="_parent">
<polygon fill="none" stroke="black" points="454.426,-358 279.574,-358 279.574,-322 454.426,-322 454.426,-358"/>
<text text-anchor="middle" x="367" y="-335.6" font-family="Courier,monospace" font-size="11.00">Notifications_Api_Sender</text>
</a>
</g>
<!-- \\Notifications_Api_Sender&#45;&gt;\\Notifications_Api_Actor -->
<g id="edge7" class="edge"><title>\\Notifications_Api_Sender&#45;&gt;\\Notifications_Api_Actor</title>
<path fill="none" stroke="black" d="M279.596,-331.197C252.288,-328.414 221.997,-325.328 194.234,-322.499"/>
<polygon fill="none" stroke="black" points="194.433,-319.002 184.13,-321.47 193.723,-325.966 194.433,-319.002"/>
</g>
</g>
</svg>
